{"title":"Human Planet - S01E03 - Arctic-Life In The Deep Freeze","uid":15564512,"size":1069076879,"categoryP":"video","categoryS":"tv_shows","magnet":"?xt=urn:btih:22de4319dfad3d69597c1a6ec21bebe829ec4a11&amp;dn=Human+Planet+-+S01E03+-+Arctic-Life+In+The+Deep+Freeze&amp;tr=udp%3A%2F%2Ftracker.leechers-paradise.org%3A6969&amp;tr=udp%3A%2F%2Fzer0day.ch%3A1337&amp;tr=udp%3A%2F%2Fopen.demonii.com%3A1337&amp;tr=udp%3A%2F%2Ftracker.coppersurfer.tk%3A6969&amp;tr=udp%3A%2F%2Fexodus.desync.com%3A6969","seeders":5,"leechers":2,"uploader":"Bullrout","files":1,"time":1471178073,"description":"Human Planet - S01E03 - Arctic-Life In The Deep Freeze\r\n\r\nThis program is an awe-inspiring, jaw-dropping, heart-stopping series that marvels at mankind's incredible relationship with nature. This episode tells remarkable stories of people who make their homes in the Arctic\r\n\r\nComplete name                            : Human Planet - S01E03 - Arctic-Life In The Deep Freeze.mkv\r\nFormat                                   : Matroska\r\nFormat version                           : Version 4 / Version 2\r\nFile size                                : 1 020 MiB\r\nDuration                                 : 42mn 41s\r\nOverall bit rate mode                    : Variable\r\nOverall bit rate                         : 3 339 Kbps\r\nEncoded date                             : UTC 2016-08-14 10:22:48\r\nWriting application                      : mkvmerge v9.3.1 ('Mask Machine') 64bit\r\nWriting library                          : libebml v1.3.4 + libmatroska v1.4.5\r\n\r\nVideo\r\nID                                       : 2\r\nFormat                                   : AVC\r\nFormat/Info                              : Advanced Video Codec\r\nFormat profile                           :   \r\nFormat settings, CABAC                   : Yes\r\nFormat settings, ReFrames                : 3 frames\r\nCodec ID                                 : V_MPEG4/ISO/AVC\r\nDuration                                 : 42mn 41s\r\nBit rate mode                            : Variable\r\nBit rate                                 : 2 953 Kbps\r\nMaximum bit rate                         : 3 000 Kbps\r\nWidth                                    : 1 280 pixels\r\nHeight                                   : 720 pixels\r\nDisplay aspect ratio                     : 16:9\r\nFrame rate mode                          : Constant\r\nFrame rate                               : 25.000 fps\r\nStandard                                 : PAL\r\nColor space                              : YUV\r\nChroma subsampling                       : 4:2:0\r\nBit depth                                : 8 bits\r\nScan type                                : Progressive\r\nBits/(Pixel*Frame)                       : 0.128\r\nStream size                              : 902 MiB (88%)\r\nWriting library                          : x264 core 112\r\nDefault                                  : Yes\r\nForced                                   : No\r\nColor range                              : Limited\r\nColor primaries                          : BT.709\r\nTransfer characteristics                 : BT.709\r\nMatrix coefficients                      : BT.709\r\n\r\nAudio\r\nID                                       : 1\r\nFormat                                   : AC-3\r\nFormat/Info                              : Audio Coding 3\r\nMode extension                           : CM (complete main)\r\nFormat settings, Endianness              : Big\r\nCodec ID                                 : A_AC3\r\nDuration                                 : 42mn 41s\r\nBit rate mode                            : Constant\r\nBit rate                                 : 384 Kbps\r\nChannel(s)                               : 6 channels\r\nChannel positions                        : Front: L C R, Side: L R, LFE\r\nSampling rate                            : 48.0 KHz\r\nFrame rate                               : 31.250 fps (1536 spf)\r\nCompression mode                         : Lossy\r\nStream size                              : 117 MiB (12%)\r\nDefault                                  : Yes\r\nForced                                   : No","torrent":{"xt":"urn:btih:22de4319dfad3d69597c1a6ec21bebe829ec4a11","amp;dn":"Human+Planet+-+S01E03+-+Arctic-Life+In+The+Deep+Freeze","amp;tr":["udp%3A%2F%2Ftracker.leechers-paradise.org%3A6969","udp%3A%2F%2Fzer0day.ch%3A1337","udp%3A%2F%2Fopen.demonii.com%3A1337","udp%3A%2F%2Ftracker.coppersurfer.tk%3A6969","udp%3A%2F%2Fexodus.desync.com%3A6969"],"infoHash":"22de4319dfad3d69597c1a6ec21bebe829ec4a11","infoHashBuffer":{"type":"Buffer","data":[34,222,67,25,223,173,61,105,89,124,26,110,194,27,235,232,41,236,74,17]},"announce":[],"urlList":[]}}